#!OML:ASF E:/inclinewalkrobotboard/Project1/Captureday1/Session1/subject1.ASF
:FULLY-SPECIFIED
:DEGREES
251
root 0 0 0 1.4266054158328538 -3.5362562119552896 1.8943307312822146
lowerback 11.966948975868634 0.8913762681698482 -0.10215860534148824
upperback -4.433942331207284 1.1167508714445646 -0.6293694692419635
thorax -11.553925141740082 0.5130118021424289 -0.8659944603206232
lowerneck -6.095756787972031 1.6532367123733864 4.623307527982688
upperneck 18.447290509365505 3.157250278576879 -8.269590145280691
head 6.779535694433325 1.163597318659869 -3.188878016433371
rclavicle -1.7440255255012804E-16 -9.704795481136283E-16
rhumerus 22.223641053162112 15.947950900733384 -46.54304234502641
rradius 74.31022699009311
rwrist 27.891015029352353
rhand -34.85533332473238 -59.756665914987394
rfingers 7.12502
rthumb -8.015283177635947 -89.56921147517994
lclavicle -1.7272377639595365E-16 -9.490135581955013E-16
lhumerus 22.79503926844507 -12.79611525787984 43.630759366303096
lradius 71.32210002424907
lwrist -23.637773420084326
lhand -45.337221584144 -73.19930940271152
lfingers 7.12502
lthumb -18.094435602427055 -43.981239819422925
rfemur -25.602336130993574 -2.153989196919701 16.687916143814167
rtibia 54.69776417747402
rfoot -27.324874324479367 -16.46758642595015
rtoes -17.68056354123993
lfemur -21.795432734160386 1.2302289631846772 -18.181935540535516
ltibia 48.63216362645649
lfoot -23.721575787833522 -3.6041349270041225
ltoes -15.4153948894055
252
root 0 0 0 1.4265978173521319 -3.536221447386388 1.8943724105289206
lowerback 11.966946573171839 0.8913559349684664 -0.10220789798095975
upperback -4.433931420416487 1.116718476820923 -0.6293666185389909
thorax -11.55391448962241 0.5129972072241432 -0.8659589189993299
lowerneck -6.095770320438912 1.6532348955945133 4.623292056603903
upperneck 18.44729065590669 3.1572446608321463 -8.26958018667382
head 6.779537377118563 1.1635949575474251 -3.1888720161903636
rclavicle -1.7440339012251001E-16 -9.704798600813726E-16
rhumerus 22.223606911972645 15.947928107627357 -46.54306240739582
rradius 74.3101951752954
rwrist 27.890999917221016
rhand -34.85532201466263 -59.756612531859
rfingers 7.12502
rthumb -8.015272129650166 -89.56915883745012
lclavicle -1.7272258409466783E-16 -9.490130982148388E-16
lhumerus 22.79512301428588 -12.796136161038433 43.630701247319045
lradius 71.32216566641873
lwrist -23.637817240401517
lhand -45.33724979807792 -73.1994546048202
lfingers 7.12502
lthumb -18.094462300305214 -43.98138328341665
rfemur -25.602203069148615 -2.1539250592305255 16.688010881485
rtibia 54.6976140865246
rfoot -27.32470728228865 -16.467495789255754
rtoes -17.6803738760842
lfemur -21.795550735505948 1.2302607994136188 -18.181912971027135
ltibia 48.63234507545971
lfoot -23.721704682988282 -3.6041514852170633
ltoes -15.415503620864236
253
root 0 0 0 1.4265930866776637 -3.536205712509476 1.8943892763917425
lowerback 11.966945093628995 0.891346747620669 -0.10222914988601173
upperback -4.433924941358386 1.1167040478512633 -0.6293645081470575
thorax -11.553907655414783 0.5129906818604899 -0.8659425849819923
lowerneck -6.095779759927576 1.6532324935425382 4.623282970966556
upperneck 18.447291128547484 3.15723977911037 -8.269572801962362
head 6.779538883129584 1.1635929114454964 -3.18886836386283
rclavicle -1.7440384618300972E-16 -9.70480057241357E-16
rhumerus 22.223591523324124 15.947917825306098 -46.54307130531103
rradius 74.31018078344088
rwrist 27.890993205275226
rhand -34.85531690571431 -59.75658864754219
rfingers 7.12502
rthumb -8.015267125082232 -89.56913539242555
lclavicle -1.7272166527859192E-16 -9.490126619362397E-16
lhumerus 22.795187251083238 -12.796152192796272 43.63065668505531
lradius 71.32221603294582
lwrist -23.637850839604333
lhand -45.337271433070015 -73.19956592083005
lfingers 7.12502
lthumb -18.094482773379458 -43.98149337119433
rfemur -25.602036853895275 -2.1538456667855055 16.688128568482718
rtibia 54.69742913280897
rfoot -27.32450065346329 -16.467383260120563
rtoes -17.680138853257684
lfemur -21.79568806416902 1.230296465412229 -18.181886633571207
ltibia 48.632547588515585
lfoot -23.721853067401938 -3.604166979764432
ltoes -15.415624748016354
254
root 0 0 0 1.4265911123885862 -3.536206304635097 1.8943853107760293
lowerback 11.966944495926512 0.8913471195427851 -0.10222658596404222
upperback -4.4339226175381174 1.1167049795490933 -0.6293632207673973
thorax -11.553904557956702 0.5129910615376427 -0.8659427870861588
lowerneck -6.095784928443979 1.6532299511870396 4.623279841309833
upperneck 18.447291787900465 3.1572360646882447 -8.269568284679938
head 6.779540067044241 1.1635913594867895 -3.1888669405146777
rclavicle -1.7440395724949452E-16 -9.704801430907988E-16
rhumerus 22.22359220984545 15.94791826950791 -46.543070665781066
rradius 74.31018133879923
rwrist 27.890993671480057
rhand -34.85531711506234 -59.75659000991847
rfingers 7.12502
rthumb -8.015267306760972 -89.56913690814329
lclavicle -1.7272106788560194E-16 -9.490122982094498E-16
lhumerus 22.795228724174134 -12.796162541475638 43.630627931695216
lradius 71.32224856678847
lwrist -23.63787251946766
lhand -45.33728539498061 -73.19963773007882
lfingers 7.12502
lthumb -18.094495986077447 -43.98156449077901
rfemur -25.601866446405786 -2.153764710182788 16.68824882795439
rtibia 54.697241044425354
rfoot -27.324290041024703 -16.467268309772187
rtoes -17.679899049610277
lfemur -21.79582276313746 1.2303305509986924 -18.181860754120642
ltibia 48.632740613942616
lfoot -23.721997558624786 -3.6041797305635175
ltoes -15.415740047173207
255
root 0 0 0 1.4265914648114624 -3.5362191391854307 1.894366127369752
lowerback 11.966944638344344 0.8913546561018646 -0.1022063773253784
upperback -4.433923719472622 1.116717382153534 -0.6293627155433338
thorax -11.553904667484593 0.5129966026057451 -0.8659554382375371
lowerneck -6.0957862274776815 1.6532276215354165 4.623281596783067
upperneck 18.447292505475232 3.1572336962409433 -8.269566496503764
head 6.779540859632096 1.163590374747836 -3.18886737697645
rclavicle -1.7440379411304167E-16 -9.704801342151843E-16
rhumerus 22.2236049375883 15.947926750209076 -46.54306291122697
rradius 74.31019310086782
rwrist 27.89099949454199
rhand -34.85532131034595 -59.75661024791167
rfingers 7.12502
rthumb -8.015271378224453 -89.5691570645493
lclavicle -1.72720787821977E-16 -9.490120347989709E-16
lhumerus 22.795247828685856 -12.796167306380262 43.63061470671451
lradius 71.32226357190227
lwrist -23.637882491382445
lhand -45.337291819206634 -73.199670739346
lfingers 7.12502
lthumb -18.094502066299057 -43.98159730312027
rfemur -25.601714220755632 -2.1536927138520454 16.68835596494639
rtibia 54.69707415045796
rfoot -27.324102803545983 -16.467165930953094
rtoes -17.679685675947113
lfemur -21.795938600106474 1.2303591733606711 -18.181838462851328
ltibia 48.632902295770116
lfoot -23.722121007420707 -3.6041888140561453
ltoes -15.41583650257748
